<?xml version="1.0" standalone="no"?>
<!DOCTYPE svg PUBLIC "-//W3C//DTD SVG 20010904//EN"
 "http://www.w3.org/TR/2001/REC-SVG-20010904/DTD/svg10.dtd">
<svg version="1.0" xmlns="http://www.w3.org/2000/svg"
 width="1472.000000pt" height="832.000000pt" viewBox="0 0 1472.000000 832.000000"
 preserveAspectRatio="xMidYMid meet">

<g transform="translate(0.000000,832.000000) scale(0.100000,-0.100000)"
fill="#000000" stroke="none">
<path d="M0 4160 l0 -4160 7360 0 7360 0 0 4160 0 4160 -7360 0 -7360 0 0
-4160z m12700 1001 c0 -810 -1 -860 -17 -865 -10 -3 -78 -4 -152 -3 l-134 2
-14 42 c-36 105 -159 144 -254 80 -105 -70 -103 -237 2 -296 33 -19 52 -22 99
-19 49 3 66 10 106 41 l47 37 159 0 158 0 0 -290 0 -290 -88 0 -88 0 -12 34
c-27 74 -95 110 -166 86 -48 -16 -82 -59 -97 -124 -7 -33 -19 -58 -28 -61 -9
-4 -343 -9 -743 -12 l-728 -6 -2 426 c-1 235 -2 437 -2 450 -1 22 0 22 183 25
116 2 188 -1 194 -7 6 -6 12 -98 15 -223 3 -165 8 -217 19 -229 7 -9 59 -32
115 -50 72 -25 110 -43 133 -66 27 -27 41 -33 75 -33 87 0 133 100 76 167 -34
40 -107 40 -158 1 l-35 -27 -72 34 -71 34 0 196 c0 107 4 195 8 195 5 0 45
-21 90 -46 79 -45 82 -48 82 -83 0 -49 23 -78 70 -91 117 -31 190 113 95 186
-35 26 -72 29 -130 10 -14 -5 -39 5 -85 35 l-64 41 45 42 c25 22 95 87 156
144 94 86 117 102 145 103 79 1 148 55 148 116 0 66 -60 123 -129 123 -80 -1
-128 -64 -117 -153 7 -48 6 -50 -35 -89 -102 -97 -255 -228 -266 -228 -10 0
-13 71 -13 319 l0 320 44 36 c59 48 69 76 65 183 -3 74 -8 94 -29 124 -33 49
-75 72 -131 72 -97 0 -161 -78 -162 -196 0 -70 32 -125 93 -159 l40 -23 0
-343 0 -343 -195 0 -196 0 3 643 3 642 24 45 c42 81 118 145 201 171 14 4 406
8 873 8 l847 1 0 -859z m-7378 494 c179 -62 333 -204 418 -387 62 -133 78
-318 39 -458 -118 -429 -580 -640 -978 -447 -123 60 -237 176 -304 308 -26 52
-55 123 -64 159 -19 77 -22 253 -4 320 62 236 231 429 437 501 94 33 132 38
259 34 98 -2 134 -8 197 -30z m4447 15 c249 -69 448 -274 505 -520 22 -94 20
-249 -4 -344 -55 -214 -240 -414 -452 -487 -97 -34 -288 -38 -393 -10 -162 45
-295 142 -394 289 -94 140 -126 254 -119 434 4 99 10 137 31 196 78 222 250
387 461 442 101 27 268 27 365 0z m-6736 -57 c30 -38 114 -149 187 -247 l133
-179 34 39 c28 33 134 169 300 387 18 23 33 48 33 55 0 9 32 12 125 12 69 0
125 -2 125 -4 0 -4 -142 -181 -228 -285 -20 -24 -60 -74 -88 -110 -28 -36 -85
-110 -127 -164 l-77 -98 0 -355 0 -355 -87 3 -88 3 -3 350 -2 350 -38 50 c-21
28 -96 127 -167 220 -70 94 -156 206 -189 250 -33 44 -75 95 -93 113 l-32 32
114 0 114 0 54 -67z m4277 -33 l0 -100 -297 -2 -296 -3 -1 -440 c-1 -428 -2
-441 -23 -493 -42 -102 -108 -170 -204 -209 -73 -30 -237 -39 -481 -28 l-167
7 -3 83 -3 83 270 4 c304 3 318 7 379 82 l31 38 0 441 0 442 -285 3 c-156 2
-285 4 -286 5 -2 1 -3 34 -5 72 -1 39 -6 77 -10 86 -5 9 -5 19 -2 23 3 3 316
6 695 6 l688 0 0 -100z m664 -17 c48 -65 127 -175 177 -245 50 -71 94 -128 98
-128 9 0 348 450 357 474 5 13 27 16 135 16 71 0 129 -3 129 -6 0 -3 -73 -96
-162 -207 -89 -111 -207 -263 -261 -337 l-99 -135 3 -342 c2 -188 1 -345 -3
-349 -4 -3 -46 -3 -93 1 l-85 7 0 333 c0 184 -4 344 -9 357 -5 13 -42 64 -83
115 -40 50 -115 147 -165 215 -51 68 -122 161 -159 208 -36 47 -75 97 -85 113
l-20 27 119 0 120 0 86 -117z m-5951 2 c-12 -74 57 -114 107 -60 18 19 22 31
17 60 -7 41 9 48 18 7 18 -85 -83 -146 -138 -84 -22 25 -31 80 -17 97 18 21
19 19 13 -20z m47 -234 c5 -11 10 -31 10 -45 0 -24 4 -26 40 -26 22 0 40 -5
40 -10 0 -10 -113 -5 -147 6 -16 4 -17 66 -1 82 18 18 46 14 58 -7z m63 -22
c-11 -17 -23 -27 -27 -21 -6 11 33 66 41 58 3 -3 -3 -19 -14 -37z m24 -234 c2
-54 1 -55 -25 -55 -23 1 -25 2 -9 11 12 7 17 23 17 54 0 65 15 55 17 -10z
m-124 -47 c8 -5 6 -8 -5 -8 -15 0 -18 8 -16 48 1 47 1 47 5 7 3 -22 10 -43 16
-47z m2093 47 c87 -57 82 -174 -10 -210 -74 -30 -143 4 -167 83 -10 36 -9 45
10 85 12 24 31 49 44 55 28 15 91 8 123 -13z m3334 -3 c50 -37 69 -114 40
-166 -8 -15 -32 -33 -58 -43 -40 -15 -49 -15 -85 -2 -75 26 -108 110 -71 180
29 58 117 73 174 31z m-5370 -17 c0 -22 -5 -35 -13 -35 -9 0 -12 11 -9 35 2
19 8 35 13 35 5 0 9 -16 9 -35z m60 -210 c0 -50 -2 -55 -22 -55 -21 1 -21 2
-5 11 12 7 17 23 17 54 0 25 2 45 5 45 3 0 5 -25 5 -55z m-68 -16 c2 -23 0
-35 -7 -33 -6 3 -8 24 -6 52 5 48 7 44 13 -19z m78 -188 c0 -12 -112 -23 -136
-14 -13 6 1 10 46 14 36 3 71 6 78 7 6 1 12 -2 12 -7z m-41 -54 c25 -11 29
-16 19 -25 -18 -14 -76 -28 -63 -14 6 5 19 12 30 14 18 3 16 6 -10 21 -36 20
-20 22 24 4z m5347 -62 c44 -34 62 -90 45 -145 -20 -67 -93 -95 -169 -65 -83
34 -102 146 -37 211 35 35 115 34 161 -1z m-5426 -5 c0 -5 -4 -10 -10 -10 -5
0 -10 5 -10 10 0 6 5 10 10 10 6 0 10 -4 10 -10z m103 -17 c-18 -2 -48 -2 -65
0 -18 2 -4 4 32 4 36 0 50 -2 33 -4z m3 -158 c-11 -8 -25 -15 -32 -15 -7 0
-20 -3 -30 -7 -13 -5 -15 -3 -9 7 5 9 4 11 -4 6 -12 -8 -51 1 -51 12 0 4 33 9
73 10 66 2 70 1 53 -13z m-15 -65 c10 0 19 -5 19 -10 0 -6 -10 -8 -24 -4 -13
3 -40 -2 -61 -10 -54 -23 -56 -19 -5 13 25 15 47 24 48 20 2 -5 12 -9 23 -9z
m7 -57 c-15 -2 -42 -2 -60 0 -18 2 -6 4 27 4 33 0 48 -2 33 -4z m-3 -178 c32
-31 33 -80 3 -112 -12 -13 -25 -23 -30 -23 -4 0 1 9 12 20 24 24 27 82 4 104
-20 21 -78 21 -95 0 -15 -19 -14 -71 3 -92 7 -8 21 -18 33 -22 17 -7 17 -9 3
-9 -21 -1 -57 33 -59 54 -1 8 -2 21 -3 28 -4 21 23 65 41 70 41 11 65 6 88
-18z m6940 -221 c38 -8 74 -19 80 -25 5 -5 10 -49 10 -97 l0 -87 -57 2 c-66 2
-98 16 -98 43 0 37 -162 39 -253 3 -108 -43 -137 -187 -52 -261 65 -57 246
-68 380 -23 89 30 86 33 83 -61 l-3 -82 -45 -14 c-65 -20 -305 -28 -382 -13
-226 44 -345 217 -279 406 27 78 113 163 195 194 112 42 264 47 421 15z
m-3377 -61 l-3 -78 -57 -3 -58 -3 0 81 0 80 60 0 61 0 -3 -77z m685 57 l37
-11 0 -69 c0 -39 -3 -70 -8 -70 -4 0 -39 7 -77 15 -94 20 -247 20 -285 0 -32
-16 -39 -45 -17 -64 8 -6 76 -22 152 -36 81 -15 155 -35 177 -47 71 -40 100
-148 57 -217 -29 -49 -55 -67 -129 -93 -56 -20 -85 -23 -205 -23 -83 0 -161 6
-191 13 l-52 13 -1 88 -1 88 72 -26 c63 -22 90 -26 191 -26 105 0 120 2 132
19 10 13 11 24 5 36 -9 17 -37 26 -223 71 -144 34 -191 75 -189 165 1 90 61
151 177 181 59 15 318 10 378 -7z m1187 -9 c5 -11 10 -63 10 -116 l0 -96 -57
3 c-56 3 -58 4 -67 35 -9 29 -14 33 -62 39 -94 11 -89 19 -89 -151 l0 -150 55
-5 55 -5 3 -72 3 -73 -211 0 -210 0 0 75 0 75 40 0 40 0 0 154 0 153 -72 -4
c-94 -6 -98 -7 -98 -38 0 -25 -2 -26 -57 -23 l-58 3 -3 108 -3 107 385 0 c371
0 386 -1 396 -19z m780 -96 l0 -115 -47 0 c-79 0 -93 7 -93 46 l0 34 -130 0
-130 0 0 -45 0 -44 108 -3 107 -3 0 -60 0 -60 -107 -3 -108 -3 0 -49 0 -50
114 0 c63 0 121 3 130 6 10 4 16 18 16 35 l0 29 75 0 75 0 0 -111 c0 -97 -2
-110 -16 -105 -9 3 -164 6 -345 6 l-329 0 0 75 0 75 30 0 30 0 0 155 0 155
-34 0 -34 0 -4 75 -3 75 348 0 347 0 0 -115z m1326 78 c-3 -21 -6 -55 -6 -75
l0 -37 -47 -3 c-48 -3 -48 -3 -51 -40 l-3 -38 146 0 146 0 -3 38 c-3 32 -7 37
-30 40 -26 3 -27 5 -30 78 l-3 74 198 0 198 0 -3 -77 c-3 -83 -1 -79 -60 -82
l-28 -1 0 -144 0 -144 39 -7 c43 -7 51 -25 51 -111 l0 -44 -195 0 -195 0 0 75
0 75 30 0 c23 0 31 5 36 24 15 60 12 61 -146 61 l-145 0 -3 -42 -3 -43 50 0
51 0 0 -75 0 -75 -194 0 c-107 0 -197 3 -199 8 -3 4 -3 37 0 75 l6 67 34 0 34
0 -3 153 -3 152 -32 3 c-37 4 -40 12 -45 100 l-3 52 209 0 209 0 -7 -37z
m-7624 17 c-13 -6 -30 -24 -38 -42 -15 -33 -15 -33 -9 -4 7 32 31 56 55 55 8
0 5 -4 -8 -9z m86 -10 c29 -27 29 -80 1 -106 -22 -19 -22 -19 -10 3 20 39 14
79 -16 102 -19 14 -23 20 -12 21 8 0 25 -9 37 -20z m-108 -105 c0 -5 -5 -3
-10 5 -5 8 -10 20 -10 25 0 6 5 3 10 -5 5 -8 10 -19 10 -25z m130 -166 c0 -37
-14 -64 -37 -73 -16 -6 -16 -6 0 12 10 11 17 35 17 61 0 26 4 40 10 36 6 -3
10 -20 10 -36z m-143 -5 c2 -39 17 -62 48 -74 17 -8 18 -9 2 -9 -28 -1 -67 44
-67 77 0 23 7 42 14 42 1 0 2 -16 3 -36z m10678 -624 l0 -625 -29 -55 c-36
-71 -79 -115 -141 -148 -50 -27 -52 -27 -296 -30 l-246 -3 -6 362 c-4 199 -7
518 -7 709 l0 347 53 7 c85 10 254 7 301 -6 53 -14 109 -1 153 36 36 31 53 34
143 33 l75 -2 0 -625z m-862 108 c4 -215 7 -521 7 -680 l0 -289 -152 3 -153 3
-5 595 c-3 327 -7 596 -8 597 -1 2 -176 4 -389 5 l-387 3 -4 78 -3 77 544 0
544 0 6 -392z m-9683 263 c0 -58 0 -58 -27 -53 -26 5 -26 5 -5 13 18 7 22 16
22 54 0 25 2 45 5 45 3 0 5 -26 5 -59z m-136 -26 c3 -8 1 -15 -4 -15 -6 0 -10
7 -10 15 0 8 2 15 4 15 2 0 6 -7 10 -15z m69 -5 c3 -11 1 -18 -4 -14 -5 3 -9
12 -9 20 0 20 7 17 13 -6z m9307 -662 l0 -543 -314 5 c-173 3 -317 7 -320 10
-3 3 -6 245 -8 538 l-3 532 323 0 322 0 0 -542z m-7424 506 c47 -22 82 -61 95
-103 l11 -37 3046 1 c2702 0 3047 -2 3047 -15 0 -13 -343 -15 -3046 -11
l-3047 4 -8 -24 c-4 -13 -9 -30 -10 -36 -4 -25 -46 -68 -82 -85 -51 -24 -123
-23 -155 2 -14 11 -31 20 -38 20 -7 0 -10 3 -7 6 4 3 -2 14 -11 23 -21 21 -35
97 -25 137 9 38 52 93 89 116 37 22 96 23 141 2z m1813 -516 c16 -51 32 -102
34 -113 2 -13 10 2 21 40 31 108 49 154 63 159 8 4 22 -25 43 -93 16 -54 30
-103 30 -110 0 -6 3 -11 8 -11 8 0 62 169 62 195 0 8 9 15 19 15 18 0 17 -9
-21 -121 -50 -150 -60 -152 -105 -21 -17 52 -33 96 -36 98 -3 3 -10 -19 -17
-48 -14 -61 -57 -158 -70 -158 -5 0 -11 15 -15 33 -4 17 -20 71 -36 119 -26
75 -30 108 -14 108 2 0 17 -42 34 -92z m521 -44 c0 -68 -4 -124 -9 -124 -9 0
-21 237 -13 253 2 4 8 5 13 2 5 -4 9 -62 9 -131z m380 121 c0 -11 -12 -15 -47
-15 l-48 0 3 -110 c2 -62 -1 -110 -6 -110 -12 0 -24 147 -16 188 l7 32 -47 0
c-25 0 -46 4 -46 9 0 11 43 17 138 19 49 2 62 -1 62 -13z m191 -43 l-2 -52 76
0 77 0 -4 50 c-2 35 1 50 10 50 9 0 12 -31 12 -120 0 -73 -4 -120 -10 -120 -5
0 -10 25 -10 55 0 50 -2 55 -22 56 -13 0 -47 1 -76 2 l-52 2 0 -57 c0 -32 -4
-58 -10 -58 -6 0 -10 49 -10 126 0 93 3 125 12 122 8 -3 11 -23 9 -56z m389
-68 c0 -92 -3 -125 -12 -122 -8 3 -13 45 -16 126 -4 107 -2 122 12 122 14 0
16 -17 16 -126z m476 31 c37 -47 70 -85 74 -85 4 0 6 38 4 85 -3 69 -1 85 11
85 12 0 15 -22 15 -125 0 -69 -2 -125 -5 -125 -2 0 -38 43 -80 95 -41 52 -76
95 -78 95 -1 0 0 -40 1 -90 3 -61 0 -90 -7 -90 -6 0 -11 20 -11 48 0 27 -3 84
-7 127 -4 56 -3 76 5 71 6 -3 41 -45 78 -91z m570 62 c4 -12 27 -66 52 -120
47 -102 49 -134 4 -79 -25 30 -31 32 -88 32 -56 0 -62 -2 -74 -27 -10 -21 -14
-24 -17 -11 -2 9 17 66 42 126 47 112 65 130 81 79z m585 22 c33 -17 12 -28
-44 -22 -47 5 -57 2 -83 -20 -24 -21 -29 -33 -29 -71 0 -36 6 -51 28 -73 24
-24 35 -28 82 -27 39 0 55 -4 55 -13 0 -24 -102 -17 -141 10 -39 26 -63 85
-54 128 8 35 41 78 69 89 30 12 94 12 117 -1z m519 -127 c0 -79 -4 -122 -9
-117 -6 6 -10 62 -11 125 -1 141 -2 132 10 125 6 -4 10 -59 10 -133z m371 128
c34 -19 20 -26 -42 -22 -52 4 -63 1 -84 -18 -31 -29 -40 -71 -25 -115 15 -47
58 -69 117 -61 34 4 43 3 43 -9 0 -11 -13 -15 -50 -15 -94 0 -140 42 -140 126
0 55 24 98 64 114 30 12 94 12 117 0z m209 -50 c0 -33 4 -60 9 -60 6 0 34 27
63 60 29 33 60 60 70 60 10 0 18 -2 18 -5 0 -3 -25 -29 -56 -59 l-56 -53 24
-24 c62 -65 99 -114 87 -118 -12 -4 -80 62 -111 107 -14 21 -17 22 -32 7 -10
-11 -16 -34 -16 -66 0 -37 -4 -49 -15 -49 -13 0 -15 21 -15 130 0 109 2 130
15 130 12 0 15 -13 15 -60z m-2525 -68 c0 -152 -19 -148 -23 4 -3 93 -1 115
10 112 10 -4 13 -32 13 -116z m1635 8 l0 -110 65 0 c54 0 65 -3 65 -16 0 -14
-8 -16 -46 -10 -26 3 -62 6 -80 6 l-34 0 0 120 c0 100 3 120 15 120 12 0 15
-19 15 -110z"/>
<path d="M4959 5482 c-138 -46 -245 -139 -305 -267 -43 -90 -58 -169 -50 -268
18 -219 165 -400 375 -461 165 -48 373 14 500 150 101 107 137 214 129 387 -4
94 -8 112 -40 179 -52 109 -138 197 -245 250 -81 40 -88 42 -196 45 -88 2
-124 -1 -168 -15z"/>
<path d="M9490 5489 c-71 -14 -182 -74 -238 -129 -103 -101 -152 -219 -152
-365 0 -154 47 -264 160 -376 158 -156 358 -189 558 -93 61 30 160 118 203
181 65 94 92 242 69 369 -18 101 -62 185 -136 264 -125 132 -286 184 -464 149z"/>
<path d="M2014 5316 c-8 -35 1 -56 26 -56 18 0 21 5 18 37 -4 46 -34 59 -44
19z"/>
<path d="M3835 3062 c2 -2 -13 -19 -33 -37 -35 -32 -37 -36 -37 -98 0 -56 4
-69 25 -92 53 -57 120 -70 178 -35 95 58 94 197 -1 247 -26 14 -144 27 -132
15z"/>
<path d="M8257 2568 c-8 -24 -18 -51 -22 -60 -6 -16 -1 -18 45 -18 58 0 56 -6
22 77 -9 24 -20 43 -24 43 -3 0 -13 -19 -21 -42z"/>
</g>
</svg>
